<svg width="481" height="455" xmlns="http://www.w3.org/2000/svg"><g fill="#5FC1B9" fill-rule="nonzero"><path d="M235.856.306c-5.23.056-10.168 2.488-13.548 6.667L0 282.425l20.271 16.366L236.148 31.314l224.327 267.66 19.967-16.742-230.91-275.51c-3.464-4.118-8.493-6.431-13.676-6.416zM234.671 423.517c-18.266 0-23.211 8.013-23.211 16.046 0 8.039 10.39 14.574 23.211 14.574 12.814 0 23.209-6.525 23.209-14.574-.005-8.033-4.448-16.046-23.209-16.046z"/><path d="M211.089 279.632s-32.09-5.972-63.69 31.545c-31.601 37.525-61.233 81.974 0 84.934 61.225 2.966 63.69-116.479 63.69-116.479zM317.257 396.111c61.235-2.96 31.6-47.408 0-84.934-31.605-37.517-63.698-31.545-63.698-31.545s2.472 119.445 63.698 116.479z"/><path d="M318.109 407.171c-.878.04-1.746.065-2.589.065-65.562 0-68.771-118.738-68.883-123.796l-.046-2.234c-4.708-1.239-9.496-1.92-14.274-1.92-4.44 0-8.896.574-13.289 1.666l-.046 2.488c-.063 2.859-1.13 42.346-14.007 75.951-6.289 17.271-14.315 30.473-34.335 43.325-6.058 2.864-12.868 4.51-20.53 4.51h-.007c-.846 0-1.717-.025-2.577-.062-.419-.025-.805-.056-1.208-.086 3.113 24.552 24.064 43.533 49.462 43.533 4.037 0 7.947-.482 11.692-1.396-1.635-2.646-2.559-5.586-2.559-8.724 0-6.825 2.915-22.704 29.871-22.704 25.997 0 29.866 14.229 29.866 22.704 0 2.772-.73 5.388-2.025 7.79a50.017 50.017 0 0 0 15.111 2.33c25.659 0 46.784-19.367 49.546-44.285-2.86.388-5.907.682-9.173.845zm-94.752-8.45c-5.522 2.777-10.555 3.702-14.812 3.702-8.468 0-13.934-3.682-14.274-3.91a2.856 2.856 0 0 1-.726-3.971c.891-1.301 2.661-1.615 3.966-.736.401.273 9.945 6.54 23.265-.188a2.859 2.859 0 0 1 3.839 1.27c.718 1.396.149 3.112-1.258 3.833zm46.628 0c-5.524 2.777-10.557 3.702-14.812 3.702-8.47 0-13.938-3.682-14.276-3.91a2.858 2.858 0 0 1-.726-3.971c.891-1.301 2.661-1.615 3.958-.736.411.273 9.952 6.54 23.272-.188 1.406-.706 3.138-.142 3.839 1.27.721 1.396.148 3.112-1.255 3.833z"/><path d="M232.868 55.724L64.442 264.409l33.292 189.73h59.415l-1.713-11.828c-11.164-9.658-18.898-23.257-20.873-38.811l-.251-2.031c-16.425-2.839-27.2-9.648-31.908-20.443-10.075-23.101 11.312-53.324 35.927-82.548 27.454-32.596 56.424-36.109 67.611-36.109 4.06 0 6.634.416 7.322.543l5.403 1c9.077-1.903 18.108-1.894 27.256.021l5.475-1.021c.686-.137 3.255-.543 7.317-.543 11.187 0 40.151 3.514 67.613 36.099 24.607 29.234 45.996 59.464 35.932 82.559-3.788 8.662-11.466 14.756-22.815 18.311l-.355 3.229c-1.762 15.722-9.308 29.493-20.383 39.313l-2.072 12.259h49.328l48.972-189.729-174.97-208.749c-1.976-2.362-5.159-2.331-7.097.063z"/></g></svg>